<?xml version="1.0" encoding="utf-8"?>
<!-- Generator: Adobe Illustrator 25.2.3, SVG Export Plug-In . SVG Version: 6.00 Build 0)  -->
<svg version="1.1" id="Layer_1" xmlns="http://www.w3.org/2000/svg" xmlns:xlink="http://www.w3.org/1999/xlink" x="0px" y="0px"
	 viewBox="0 0 640 155" style="enable-background:new 0 0 640 155;" xml:space="preserve">
<style type="text/css">
	.st0{display:none;fill:#FFFFFF;}
	.st1{fill:#52579C;}
	.st2{fill:#30BF78;}
	.st3{fill:#F26695;}
	.st4{fill:#353750;}
	.st5{fill:#42445A;}
</style>
<path class="st0" d="M180-8c27,20,31,61,2,68c-37.8-1.9-10.6-42.8-1.4-46.3C185,12,180-8,180-8z"/>
<path class="st1" d="M90.6,23.9c9.2,4.7,15.5,11.1,19.4,18.9c3.9,7.8,7,16.6,7.7,25.2c0.8,10.7-2.4,21-11.3,28.6
	c-11.8,10.1-30,4-33.4-8.8c-2.5-9.3,0-16.1,5.1-23.4c3.5-5,8.8-14.2,11.3-18.6c0.9-1.5,1.5-3.2,1.7-5l0,0c0.4-2.3,0.5-4.6,0.3-7
	C91.1,30.9,90.8,26.7,90.6,23.9z"/>
<path class="st2" d="M6.7,75.1c0-10.3,2.9-18.8,8-25.8c5.1-7,11.6-13.8,18.9-18.3c9.2-5.6,19.8-7.4,30.6-2.9
	c14.4,5.9,17.2,24.9,7.3,33.8c-7.2,6.5-14.4,7.4-23.1,6.1c-6-0.9-16.7-1.4-21.7-1.6c-1.8-0.1-3.5,0.2-5.2,0.7h0
	c-2.2,0.7-4.4,1.7-6.4,2.9C12.7,71.4,9.1,73.6,6.7,75.1z"/>
<path class="st3" d="M95,122.1c-8.6,5.6-17.4,7.9-26,7.4c-8.7-0.5-17.9-2.2-25.7-5.9c-9.7-4.6-17-12.5-19.2-24
	c-3-15.2,11.5-28,24.3-24.6c9.3,2.5,14,8,17.8,16c2.6,5.5,8,14.7,10.5,19c0.9,1.5,2.1,2.9,3.5,4l0,0c1.8,1.5,3.8,2.7,5.9,3.8
	C88.6,119.1,92.4,120.9,95,122.1z"/>
<g>
	<g>
		<path class="st1" d="M162.6,28h13.6v69.4h-6.9V34.8h-10.9L162.6,28z"/>
	</g>
</g>
<g>
	<g>
		<path class="st2" d="M189.8,48.3h-6.6c0.2-6.8,2.5-12.5,6.9-16.8c4.4-4.4,9.8-6.6,16.2-6.6c6.4,0,11.5,2.1,15.5,6.2
			c3.9,4.1,5.9,9,5.9,14.6c0,3.9-0.9,7.6-2.8,11.1c-1.9,3.4-5.5,8.1-11,14l-17.3,18.6h32V96h-47.1L208,67.3
			c5.4-5.8,8.9-10,10.5-12.8c1.6-2.8,2.4-5.7,2.4-8.8c0-3.9-1.5-7.3-4.4-10.1c-2.9-2.8-6.5-4.2-10.7-4.2c-4.4,0-8.1,1.5-11.1,4.4
			C191.9,38.8,190.2,43,189.8,48.3z"/>
	</g>
</g>
<g>
	<g>
		<path class="st3" d="M239.4,42.7h-7.1c1.3-5.7,3.8-10.1,7.4-13.2c3.6-3.1,8-4.6,12.9-4.6c3.6,0,7,0.8,10.1,2.5
			c3.1,1.7,5.5,3.9,7.3,6.7c1.7,2.8,2.6,5.7,2.6,8.8c0,6-3,10.7-8.9,14.2c3.3,1.4,6.1,3.3,8.2,5.9c3,3.7,4.5,7.8,4.5,12.4
			c0,3.9-1,7.7-3.1,11.2c-2.1,3.6-4.9,6.3-8.5,8.3c-3.6,1.9-7.6,2.9-12,2.9c-6,0-11-1.7-14.9-5.2c-4-3.4-6.6-8.5-7.8-15.2h6.8
			c1.2,4.5,2.9,7.8,5.1,9.8c2.9,2.5,6.5,3.8,10.9,3.8c5,0,9.1-1.5,12.1-4.5c3-3,4.6-6.6,4.6-10.6c0-2.7-0.8-5.2-2.3-7.6
			c-1.5-2.4-3.6-4.1-6.1-5.3c-2.6-1.2-6.5-1.9-11.9-2.2v-6.4c3.2,0,6.1-0.6,8.7-1.7c2.6-1.1,4.5-2.5,5.7-4.3
			c1.2-1.7,1.8-3.6,1.8-5.7c0-3-1.2-5.6-3.6-7.8c-2.4-2.2-5.4-3.3-9.1-3.3c-3,0-5.6,0.8-7.7,2.5C242.8,35.8,241,38.7,239.4,42.7z"/>
	</g>
</g>
<g>
	<path class="st4" d="M290.7,46.8v19.6h22.6V46.8h6.1v46.8h-6.1V71.7h-22.6v21.9h-6V46.8H290.7z"/>
	<path class="st4" d="M354.2,71.7H336v16.9h20.3v5.1h-26.3V46.8h25.3v5.1H336v14.8h18.2V71.7z"/>
	<path class="st4" d="M364.1,46.8h6v41.7h20v5.1h-26V46.8z"/>
	<path class="st4" d="M396.8,47.4c2.9-0.5,6.7-0.9,11.6-0.9c6,0,10.3,1.4,13.1,3.9c2.6,2.2,4.1,5.6,4.1,9.8c0,4.2-1.2,7.6-3.6,10
		c-3.2,3.4-8.4,5.1-14.3,5.1c-1.8,0-3.5-0.1-4.9-0.4v18.7h-6V47.4z M402.9,69.9c1.3,0.3,3,0.5,5,0.5c7.3,0,11.7-3.5,11.7-10
		c0-6.2-4.4-9.2-11-9.2c-2.6,0-4.7,0.2-5.7,0.5V69.9z"/>
	<path class="st4" d="M472.4,73.1c-0.3-6.5-0.8-14.4-0.7-20.2h-0.2c-1.6,5.5-3.5,11.3-5.9,17.8l-8.3,22.7h-4.6L445.2,71
		c-2.2-6.6-4.1-12.6-5.4-18.2h-0.1c-0.1,5.8-0.5,13.7-0.9,20.7l-1.2,20.1h-5.8l3.3-46.8h7.7l8,22.6c1.9,5.8,3.5,10.9,4.7,15.8h0.2
		c1.2-4.7,2.8-9.9,4.9-15.8l8.3-22.6h7.7l2.9,46.8h-5.9L472.4,73.1z"/>
	<path class="st4" d="M513,71.7h-18.2v16.9H515v5.1h-26.3V46.8H514v5.1h-19.2v14.8H513V71.7z"/>
	<path class="st4" d="M520,91.2c0-1.7,1.2-2.9,2.8-2.9c1.6,0,2.7,1.2,2.7,2.9c0,1.7-1.1,2.9-2.8,2.9C521.1,94.1,520,92.9,520,91.2z"
		/>
	<path class="st4" d="M557.4,77.7c0,10.7-6.5,16.4-14.5,16.4c-8.2,0-14-6.4-14-15.8c0-9.9,6.2-16.4,14.5-16.4
		C551.9,61.9,557.4,68.4,557.4,77.7z M533.2,78.2c0,6.7,3.6,12.6,10,12.6c6.4,0,10-5.9,10-13c0-6.2-3.2-12.7-10-12.7
		C536.5,65.2,533.2,71.3,533.2,78.2z"/>
	<path class="st4" d="M562.6,62.8c2-0.4,5-0.6,7.7-0.6c4.3,0,7.1,0.8,9,2.5c1.6,1.4,2.5,3.5,2.5,5.9c0,4.1-2.6,6.8-5.9,8v0.1
		c2.4,0.8,3.8,3.1,4.6,6.3c1,4.4,1.8,7.4,2.4,8.6h-4.2c-0.5-0.9-1.2-3.6-2.1-7.5c-0.9-4.3-2.6-5.9-6.2-6.1h-3.8v13.5h-4V62.8z
		 M566.6,77h4.1c4.3,0,7-2.4,7-5.9c0-4-2.9-5.8-7.2-5.8c-1.9,0-3.3,0.2-4,0.4V77z"/>
	<path class="st4" d="M611.4,92.2c-1.8,0.6-5.4,1.7-9.6,1.7c-4.7,0-8.6-1.2-11.7-4.1c-2.7-2.6-4.4-6.8-4.4-11.6
		c0-9.3,6.4-16.1,16.9-16.1c3.6,0,6.4,0.8,7.8,1.4l-1,3.3c-1.7-0.7-3.7-1.3-6.9-1.3C595,65.5,590,70.2,590,78
		c0,7.9,4.8,12.6,12,12.6c2.6,0,4.4-0.4,5.4-0.8v-9.3h-6.3v-3.2h10.3V92.2z"/>
</g>
<g>
	<path class="st5" d="M169.8,113.3h2.2v19.7h8.4v2.1h-10.6V113.3z"/>
	<path class="st5" d="M197,129.7l1.7,0.9c-0.6,1.1-1.2,2-2,2.7c-0.8,0.7-1.6,1.2-2.5,1.6c-0.9,0.4-2,0.5-3.2,0.5
		c-2.6,0-4.7-0.9-6.2-2.6c-1.5-1.7-2.2-3.7-2.2-5.8c0-2,0.6-3.9,1.9-5.5c1.6-2,3.7-3,6.4-3c2.7,0,4.9,1,6.6,3.1
		c1.2,1.5,1.8,3.3,1.8,5.5h-14.5c0,1.9,0.6,3.4,1.8,4.6c1.2,1.2,2.6,1.8,4.3,1.8c0.8,0,1.6-0.1,2.4-0.4s1.4-0.7,2-1.1
		S196.4,130.8,197,129.7z M197,125.4c-0.3-1.1-0.7-2-1.2-2.6c-0.5-0.7-1.2-1.2-2.1-1.6c-0.9-0.4-1.8-0.6-2.7-0.6
		c-1.6,0-2.9,0.5-4.1,1.5c-0.8,0.7-1.5,1.9-1.9,3.3H197z"/>
	<path class="st5" d="M205,113h2.1v6h3.3v1.8h-3.3V135H205v-14.3h-2.8v-1.8h2.8V113z"/>
	<path class="st5" d="M221.6,118.9h2.1v7.5c0,1.8,0.1,3.1,0.3,3.8c0.3,1,0.9,1.8,1.7,2.3c0.8,0.6,1.8,0.9,3,0.9s2.1-0.3,2.9-0.8
		c0.8-0.6,1.4-1.3,1.7-2.2c0.2-0.6,0.3-1.9,0.3-4v-7.5h2.1v7.9c0,2.2-0.3,3.9-0.8,5c-0.5,1.1-1.3,2-2.3,2.6c-1,0.6-2.3,1-3.9,1
		s-2.9-0.3-3.9-1c-1.1-0.6-1.8-1.5-2.4-2.7s-0.8-2.9-0.8-5.1V118.9z"/>
	<path class="st5" d="M248.4,120.7l-1.3,1.4c-1.1-1.1-2.2-1.6-3.2-1.6c-0.7,0-1.2,0.2-1.7,0.7c-0.5,0.4-0.7,1-0.7,1.6
		c0,0.5,0.2,1,0.6,1.5c0.4,0.5,1.2,1.1,2.5,1.7c1.5,0.8,2.6,1.6,3.1,2.3c0.5,0.8,0.8,1.6,0.8,2.5c0,1.3-0.5,2.4-1.4,3.4
		c-0.9,0.9-2.1,1.4-3.5,1.4c-0.9,0-1.8-0.2-2.7-0.6s-1.5-1-2.1-1.7l1.3-1.5c1.1,1.2,2.2,1.8,3.4,1.8c0.8,0,1.5-0.3,2.1-0.8
		c0.6-0.5,0.9-1.2,0.9-1.9c0-0.6-0.2-1.1-0.6-1.6c-0.4-0.5-1.3-1-2.6-1.7c-1.5-0.8-2.4-1.5-3-2.2c-0.5-0.7-0.8-1.6-0.8-2.5
		c0-1.2,0.4-2.2,1.3-3s1.9-1.2,3.2-1.2C245.4,118.5,246.9,119.3,248.4,120.7z"/>
	<path class="st5" d="M258.5,131l1.9-1.1c1.3,2.4,2.8,3.6,4.5,3.6c0.7,0,1.4-0.2,2.1-0.5s1.1-0.8,1.5-1.4s0.5-1.2,0.5-1.8
		c0-0.7-0.2-1.4-0.7-2.1c-0.7-1-1.9-2.1-3.7-3.5c-1.8-1.4-2.9-2.4-3.4-3c-0.8-1-1.2-2.1-1.2-3.3c0-0.9,0.2-1.8,0.7-2.6
		c0.5-0.8,1.1-1.4,1.9-1.8c0.8-0.4,1.7-0.7,2.7-0.7c1,0,2,0.3,2.9,0.8c0.9,0.5,1.8,1.4,2.8,2.8l-1.8,1.3c-0.8-1.1-1.5-1.8-2.1-2.1
		c-0.6-0.3-1.2-0.5-1.9-0.5c-0.9,0-1.6,0.3-2.2,0.8c-0.6,0.5-0.8,1.2-0.8,2c0,0.5,0.1,0.9,0.3,1.4c0.2,0.4,0.6,0.9,1.1,1.5
		c0.3,0.3,1.2,1,2.8,2.2c1.9,1.4,3.2,2.6,3.9,3.7c0.7,1.1,1.1,2.2,1.1,3.3c0,1.6-0.6,3-1.8,4.1s-2.7,1.7-4.4,1.7
		c-1.3,0-2.5-0.4-3.6-1.1C260.4,133.8,259.4,132.6,258.5,131z"/>
	<path class="st5" d="M283.1,118.5c2.5,0,4.5,0.9,6.2,2.7c1.5,1.6,2.2,3.6,2.2,5.8c0,2.2-0.8,4.2-2.4,5.9c-1.6,1.7-3.6,2.5-6,2.5
		c-2.5,0-4.5-0.8-6.1-2.5c-1.6-1.7-2.4-3.6-2.4-5.9c0-2.2,0.7-4.2,2.2-5.8C278.6,119.4,280.7,118.5,283.1,118.5z M283.1,120.6
		c-1.7,0-3.2,0.6-4.4,1.9c-1.2,1.3-1.9,2.8-1.9,4.6c0,1.2,0.3,2.2,0.8,3.3s1.3,1.8,2.3,2.3c1,0.5,2,0.8,3.2,0.8s2.2-0.3,3.2-0.8
		c1-0.5,1.7-1.3,2.3-2.3c0.6-1,0.8-2.1,0.8-3.3c0-1.8-0.6-3.3-1.9-4.6S284.9,120.6,283.1,120.6z"/>
	<path class="st5" d="M295.1,112.7h2.1V135h-2.1V112.7z"/>
	<path class="st5" d="M299.9,118.9h2.2l5.4,11.7l5.3-11.7h2.2l-7.4,16.1h-0.4L299.9,118.9z"/>
	<path class="st5" d="M331.8,129.7l1.7,0.9c-0.6,1.1-1.2,2-2,2.7c-0.8,0.7-1.6,1.2-2.5,1.6c-0.9,0.4-2,0.5-3.2,0.5
		c-2.6,0-4.7-0.9-6.2-2.6c-1.5-1.7-2.2-3.7-2.2-5.8c0-2,0.6-3.9,1.9-5.5c1.6-2,3.7-3,6.4-3c2.7,0,4.9,1,6.6,3.1
		c1.2,1.5,1.8,3.3,1.8,5.5h-14.5c0,1.9,0.6,3.4,1.8,4.6c1.2,1.2,2.6,1.8,4.3,1.8c0.8,0,1.6-0.1,2.4-0.4s1.4-0.7,2-1.1
		S331.2,130.8,331.8,129.7z M331.8,125.4c-0.3-1.1-0.7-2-1.2-2.6c-0.5-0.7-1.2-1.2-2.1-1.6c-0.9-0.4-1.8-0.6-2.7-0.6
		c-1.6,0-2.9,0.5-4.1,1.5c-0.8,0.7-1.5,1.9-1.9,3.3H331.8z"/>
	<path class="st5" d="M344.6,118.9h2.2l5.5,12.4l5.4-12.4h2.2l-9.6,22h-2.2l3.1-7.1L344.6,118.9z"/>
	<path class="st5" d="M370.2,118.5c2.5,0,4.5,0.9,6.2,2.7c1.5,1.6,2.2,3.6,2.2,5.8c0,2.2-0.8,4.2-2.4,5.9c-1.6,1.7-3.6,2.5-6,2.5
		c-2.5,0-4.5-0.8-6.1-2.5c-1.6-1.7-2.4-3.6-2.4-5.9c0-2.2,0.7-4.2,2.2-5.8C365.7,119.4,367.7,118.5,370.2,118.5z M370.2,120.6
		c-1.7,0-3.2,0.6-4.4,1.9c-1.2,1.3-1.9,2.8-1.9,4.6c0,1.2,0.3,2.2,0.8,3.3s1.3,1.8,2.3,2.3c1,0.5,2,0.8,3.2,0.8s2.2-0.3,3.2-0.8
		c1-0.5,1.7-1.3,2.3-2.3c0.6-1,0.8-2.1,0.8-3.3c0-1.8-0.6-3.3-1.9-4.6S371.9,120.6,370.2,120.6z"/>
	<path class="st5" d="M382.2,118.9h2.1v7.5c0,1.8,0.1,3.1,0.3,3.8c0.3,1,0.9,1.8,1.7,2.3c0.8,0.6,1.8,0.9,3,0.9s2.1-0.3,2.9-0.8
		c0.8-0.6,1.4-1.3,1.7-2.2c0.2-0.6,0.3-1.9,0.3-4v-7.5h2.1v7.9c0,2.2-0.3,3.9-0.8,5c-0.5,1.1-1.3,2-2.3,2.6c-1,0.6-2.3,1-3.9,1
		s-2.9-0.3-3.9-1c-1.1-0.6-1.8-1.5-2.4-2.7s-0.8-2.9-0.8-5.1V118.9z"/>
	<path class="st5" d="M400.1,118.9h2.1v2.4c0.6-0.9,1.3-1.6,2-2.1c0.7-0.5,1.4-0.7,2.2-0.7c0.6,0,1.2,0.2,1.8,0.5l-1.1,1.7
		c-0.4-0.2-0.8-0.3-1.1-0.3c-0.7,0-1.4,0.3-2,0.9c-0.6,0.6-1.1,1.4-1.5,2.6c-0.3,0.9-0.4,2.8-0.4,5.6v5.4h-2.1V118.9z"/>
	<path class="st5" d="M418.4,112.7h2.1v9.1c0.8-1.1,1.8-1.9,2.8-2.5c1-0.5,2.1-0.8,3.3-0.8c1.2,0,2.3,0.3,3.2,0.9
		c0.9,0.6,1.6,1.4,2.1,2.5c0.4,1,0.7,2.6,0.7,4.8v8.3h-2.1v-7.7c0-1.9-0.1-3.1-0.2-3.7c-0.3-1.1-0.7-1.9-1.4-2.4
		c-0.7-0.5-1.6-0.8-2.7-0.8c-1.3,0-2.4,0.4-3.4,1.2c-1,0.8-1.6,1.9-2,3.1c-0.2,0.8-0.3,2.2-0.3,4.4v5.9h-2.1V112.7z"/>
	<path class="st5" d="M452.9,118.9V135h-2v-2.8c-0.9,1.1-1.8,1.9-2.9,2.4s-2.3,0.8-3.5,0.8c-2.3,0-4.2-0.8-5.8-2.5s-2.4-3.7-2.4-6
		c0-2.3,0.8-4.3,2.4-5.9c1.6-1.6,3.6-2.5,5.9-2.5c1.3,0,2.5,0.3,3.6,0.8s2,1.4,2.8,2.5v-3H452.9z M444.6,120.5
		c-1.2,0-2.2,0.3-3.2,0.9c-1,0.6-1.8,1.4-2.3,2.4c-0.6,1-0.9,2.1-0.9,3.3c0,1.1,0.3,2.2,0.9,3.3c0.6,1,1.4,1.8,2.3,2.4
		c1,0.6,2,0.9,3.2,0.9c1.1,0,2.2-0.3,3.2-0.9c1-0.6,1.8-1.3,2.3-2.3c0.5-1,0.8-2.1,0.8-3.3c0-1.9-0.6-3.4-1.8-4.7
		C447.9,121.1,446.4,120.5,444.6,120.5z"/>
	<path class="st5" d="M456.8,118.9h2.1v2.4c0.6-0.9,1.3-1.6,2-2.1c0.7-0.5,1.4-0.7,2.2-0.7c0.6,0,1.2,0.2,1.8,0.5l-1.1,1.7
		c-0.4-0.2-0.8-0.3-1.1-0.3c-0.7,0-1.4,0.3-2,0.9c-0.6,0.6-1.1,1.4-1.5,2.6c-0.3,0.9-0.4,2.8-0.4,5.6v5.4h-2.1V118.9z"/>
	<path class="st5" d="M482.7,112.7V135h-2v-2.8c-0.9,1.1-1.8,1.9-2.9,2.4c-1.1,0.5-2.3,0.8-3.5,0.8c-2.3,0-4.2-0.8-5.8-2.5
		s-2.4-3.7-2.4-6c0-2.3,0.8-4.3,2.4-5.9c1.6-1.6,3.6-2.5,5.9-2.5c1.3,0,2.5,0.3,3.6,0.8c1.1,0.6,2,1.4,2.8,2.5v-9.2H482.7z
		 M474.5,120.5c-1.2,0-2.2,0.3-3.2,0.9c-1,0.6-1.8,1.4-2.3,2.4s-0.9,2.1-0.9,3.3c0,1.1,0.3,2.2,0.9,3.3c0.6,1,1.4,1.8,2.3,2.4
		c1,0.6,2,0.9,3.2,0.9c1.1,0,2.2-0.3,3.2-0.9c1-0.6,1.8-1.3,2.3-2.3c0.5-1,0.8-2.1,0.8-3.3c0-1.9-0.6-3.4-1.8-4.7
		C477.8,121.1,476.3,120.5,474.5,120.5z"/>
	<path class="st5" d="M496.2,113.3h4.3c2.5,0,4.2,0.1,5,0.3c1.2,0.3,2.3,0.9,3,1.9c0.8,1,1.2,2.1,1.2,3.6c0,1.5-0.4,2.6-1.2,3.6
		c-0.8,0.9-1.8,1.6-3.2,1.9c-1,0.2-2.8,0.4-5.5,0.4h-1.6V135h-2.2V113.3z M498.3,115.4v7.4l3.7,0c1.5,0,2.6-0.1,3.3-0.4
		c0.7-0.3,1.2-0.7,1.6-1.3c0.4-0.6,0.6-1.3,0.6-2c0-0.7-0.2-1.4-0.6-2c-0.4-0.6-0.9-1-1.6-1.3c-0.6-0.3-1.7-0.4-3.2-0.4H498.3z"/>
	<path class="st5" d="M513,118.9h2.1v2.4c0.6-0.9,1.3-1.6,2-2.1c0.7-0.5,1.4-0.7,2.2-0.7c0.6,0,1.2,0.2,1.8,0.5l-1.1,1.7
		c-0.4-0.2-0.8-0.3-1.1-0.3c-0.7,0-1.4,0.3-2,0.9c-0.6,0.6-1.1,1.4-1.5,2.6c-0.3,0.9-0.4,2.8-0.4,5.6v5.4H513V118.9z"/>
	<path class="st5" d="M530.5,118.5c2.5,0,4.5,0.9,6.2,2.7c1.5,1.6,2.2,3.6,2.2,5.8c0,2.2-0.8,4.2-2.4,5.9c-1.6,1.7-3.6,2.5-6,2.5
		c-2.5,0-4.5-0.8-6.1-2.5c-1.6-1.7-2.4-3.6-2.4-5.9c0-2.2,0.7-4.2,2.2-5.8C526,119.4,528,118.5,530.5,118.5z M530.5,120.6
		c-1.7,0-3.2,0.6-4.4,1.9c-1.2,1.3-1.9,2.8-1.9,4.6c0,1.2,0.3,2.2,0.8,3.3s1.3,1.8,2.3,2.3c1,0.5,2,0.8,3.2,0.8s2.2-0.3,3.2-0.8
		c1-0.5,1.7-1.3,2.3-2.3c0.6-1,0.8-2.1,0.8-3.3c0-1.8-0.6-3.3-1.9-4.6S532.2,120.6,530.5,120.6z"/>
	<path class="st5" d="M542.9,135v-22.3h2.1v9c0.9-1.1,1.8-1.9,2.9-2.4c1.1-0.5,2.3-0.8,3.5-0.8c2.3,0,4.2,0.8,5.8,2.5
		c1.6,1.7,2.4,3.7,2.4,6c0,2.3-0.8,4.3-2.4,6s-3.6,2.5-5.9,2.5c-1.3,0-2.5-0.3-3.6-0.8s-2-1.4-2.8-2.5v3H542.9z M551.2,133.5
		c1.2,0,2.2-0.3,3.2-0.9c1-0.6,1.8-1.4,2.3-2.4s0.9-2.1,0.9-3.3c0-1.1-0.3-2.2-0.9-3.3c-0.6-1-1.4-1.8-2.3-2.4s-2-0.9-3.1-0.9
		c-1.1,0-2.2,0.3-3.2,0.9s-1.8,1.4-2.3,2.3c-0.5,1-0.8,2.1-0.8,3.3c0,1.9,0.6,3.4,1.8,4.7C547.9,132.8,549.4,133.5,551.2,133.5z"/>
	<path class="st5" d="M563.1,112.7h2.1V135h-2.1V112.7z"/>
	<path class="st5" d="M583,129.7l1.7,0.9c-0.6,1.1-1.2,2-2,2.7c-0.8,0.7-1.6,1.2-2.5,1.6c-0.9,0.4-2,0.5-3.2,0.5
		c-2.6,0-4.7-0.9-6.2-2.6c-1.5-1.7-2.2-3.7-2.2-5.8c0-2,0.6-3.9,1.9-5.5c1.6-2,3.7-3,6.4-3c2.7,0,4.9,1,6.6,3.1
		c1.2,1.5,1.8,3.3,1.8,5.5h-14.5c0,1.9,0.6,3.4,1.8,4.6c1.2,1.2,2.6,1.8,4.3,1.8c0.8,0,1.6-0.1,2.4-0.4s1.4-0.7,2-1.1
		S582.4,130.8,583,129.7z M583,125.4c-0.3-1.1-0.7-2-1.2-2.6c-0.5-0.7-1.2-1.2-2.1-1.6c-0.9-0.4-1.8-0.6-2.7-0.6
		c-1.6,0-2.9,0.5-4.1,1.5c-0.8,0.7-1.5,1.9-1.9,3.3H583z"/>
	<path class="st5" d="M589.2,118.9h2.1v2.8c0.7-1,1.5-1.8,2.2-2.2c1-0.6,2.1-0.9,3.3-0.9c0.8,0,1.5,0.2,2.2,0.5
		c0.7,0.3,1.3,0.7,1.7,1.2c0.4,0.5,0.8,1.2,1.2,2.2c0.7-1.3,1.5-2.2,2.6-2.9s2.1-1,3.3-1c1.1,0,2.1,0.3,2.9,0.8s1.5,1.3,1.9,2.4
		c0.4,1,0.6,2.5,0.6,4.5v8.8h-2.1v-8.8c0-1.7-0.1-2.9-0.4-3.6c-0.2-0.6-0.7-1.2-1.3-1.6s-1.3-0.6-2.1-0.6c-1,0-1.9,0.3-2.8,0.9
		c-0.8,0.6-1.4,1.4-1.8,2.4s-0.6,2.6-0.6,4.9v6.3h-2.1v-8.2c0-1.9-0.1-3.3-0.4-4c-0.2-0.7-0.7-1.3-1.3-1.7c-0.6-0.4-1.3-0.6-2.1-0.6
		c-1,0-1.9,0.3-2.7,0.9c-0.8,0.6-1.5,1.4-1.9,2.3c-0.4,1-0.6,2.5-0.6,4.5v6.8h-2.1V118.9z"/>
	<path class="st5" d="M625.7,120.7l-1.3,1.4c-1.1-1.1-2.2-1.6-3.2-1.6c-0.7,0-1.2,0.2-1.7,0.7c-0.5,0.4-0.7,1-0.7,1.6
		c0,0.5,0.2,1,0.6,1.5c0.4,0.5,1.2,1.1,2.5,1.7c1.5,0.8,2.6,1.6,3.1,2.3c0.5,0.8,0.8,1.6,0.8,2.5c0,1.3-0.5,2.4-1.4,3.4
		c-0.9,0.9-2.1,1.4-3.5,1.4c-0.9,0-1.8-0.2-2.7-0.6s-1.5-1-2.1-1.7l1.3-1.5c1.1,1.2,2.2,1.8,3.4,1.8c0.8,0,1.5-0.3,2.1-0.8
		c0.6-0.5,0.9-1.2,0.9-1.9c0-0.6-0.2-1.1-0.6-1.6c-0.4-0.5-1.3-1-2.6-1.7c-1.5-0.8-2.4-1.5-3-2.2c-0.5-0.7-0.8-1.6-0.8-2.5
		c0-1.2,0.4-2.2,1.3-3s1.9-1.2,3.2-1.2C622.7,118.5,624.2,119.3,625.7,120.7z"/>
	<path class="st5" d="M631.5,131.8c0.5,0,0.9,0.2,1.3,0.5c0.4,0.4,0.5,0.8,0.5,1.3c0,0.5-0.2,0.9-0.5,1.3c-0.4,0.4-0.8,0.5-1.3,0.5
		c-0.5,0-0.9-0.2-1.3-0.5c-0.4-0.4-0.5-0.8-0.5-1.3c0-0.5,0.2-0.9,0.5-1.3C630.6,132,631,131.8,631.5,131.8z M632.6,112.7v16.9h-2.1
		v-16.9H632.6z"/>
</g>
<g>
</g>
<g>
</g>
<g>
</g>
<g>
</g>
<g>
</g>
<g>
</g>
<g>
</g>
<g>
</g>
<g>
</g>
<g>
</g>
<g>
</g>
<g>
</g>
<g>
</g>
<g>
</g>
<g>
</g>
</svg>
